<svg xmlns="http://www.w3.org/2000/svg" xmlns:xlink="http://www.w3.org/1999/xlink" width="500" zoomAndPan="magnify" viewBox="0 0 375 149.999998" height="200" preserveAspectRatio="xMidYMid meet" version="1.0"><defs><g/><clipPath id="5fa0d7cc26"><path d="M 232.894531 28.101562 L 343.980469 28.101562 L 343.980469 121.957031 L 232.894531 121.957031 Z M 232.894531 28.101562 " clip-rule="nonzero"/></clipPath><clipPath id="28aaa859a1"><path d="M 244.894531 28.101562 L 331.644531 28.101562 C 338.273438 28.101562 343.644531 33.476562 343.644531 40.101562 L 343.644531 109.957031 C 343.644531 116.585938 338.273438 121.957031 331.644531 121.957031 L 244.894531 121.957031 C 238.265625 121.957031 232.894531 116.585938 232.894531 109.957031 L 232.894531 40.101562 C 232.894531 33.476562 238.265625 28.101562 244.894531 28.101562 Z M 244.894531 28.101562 " clip-rule="nonzero"/></clipPath><clipPath id="3625cba1a1"><path d="M 31.355469 28.101562 L 232.996094 28.101562 L 232.996094 121.957031 L 31.355469 121.957031 Z M 31.355469 28.101562 " clip-rule="nonzero"/></clipPath><clipPath id="2292b93dcd"><path d="M 43.355469 28.101562 L 220.894531 28.101562 C 227.523438 28.101562 232.894531 33.476562 232.894531 40.101562 L 232.894531 109.957031 C 232.894531 116.585938 227.523438 121.957031 220.894531 121.957031 L 43.355469 121.957031 C 36.726562 121.957031 31.355469 116.585938 31.355469 109.957031 L 31.355469 40.101562 C 31.355469 33.476562 36.726562 28.101562 43.355469 28.101562 Z M 43.355469 28.101562 " clip-rule="nonzero"/></clipPath><clipPath id="3c05fa92ef"><path d="M 71 8 L 206 8 L 206 142 L 71 142 Z M 71 8 " clip-rule="nonzero"/></clipPath><clipPath id="aab9673795"><path d="M 44.007812 75.027344 L 138.933594 -19.902344 L 233.863281 75.027344 L 138.933594 169.957031 Z M 44.007812 75.027344 " clip-rule="nonzero"/></clipPath><clipPath id="141557aa27"><path d="M 52.492188 83.511719 L 129.964844 160.984375 C 134.652344 165.671875 142.25 165.671875 146.9375 160.984375 L 224.410156 83.511719 C 229.097656 78.824219 229.097656 71.226562 224.410156 66.539062 L 146.9375 -10.933594 C 142.25 -15.621094 134.652344 -15.621094 129.964844 -10.933594 L 52.492188 66.539062 C 47.804688 71.226562 47.804688 78.824219 52.492188 83.511719 Z M 52.492188 83.511719 " clip-rule="nonzero"/></clipPath><clipPath id="8f9f992a8c"><path d="M 44.007812 75.027344 L 138.40625 -19.371094 L 232.804688 75.027344 L 138.40625 169.425781 Z M 44.007812 75.027344 " clip-rule="nonzero"/></clipPath><clipPath id="317c9dc4b3"><path d="M 44.007812 75.027344 L 138.40625 -19.371094 L 232.804688 75.027344 L 138.40625 169.425781 Z M 44.007812 75.027344 " clip-rule="nonzero"/></clipPath><clipPath id="61e816b1b9"><path d="M 44.007812 75.027344 L 138.40625 -19.371094 L 232.804688 75.027344 L 138.40625 169.425781 Z M 44.007812 75.027344 " clip-rule="nonzero"/></clipPath><clipPath id="4158153b02"><path d="M 44.007812 75.027344 L 138.40625 -19.371094 L 232.804688 75.027344 L 138.40625 169.425781 Z M 44.007812 75.027344 " clip-rule="nonzero"/></clipPath><clipPath id="9a056f1ecb"><path d="M 103 39 L 174 39 L 174 111 L 103 111 Z M 103 39 " clip-rule="nonzero"/></clipPath><clipPath id="b0801361c7"><path d="M 44.007812 75.027344 L 138.933594 -19.902344 L 233.863281 75.027344 L 138.933594 169.957031 Z M 44.007812 75.027344 " clip-rule="nonzero"/></clipPath><clipPath id="a9be67a97f"><path d="M 52.492188 83.511719 L 129.964844 160.984375 C 134.652344 165.671875 142.25 165.671875 146.9375 160.984375 L 224.410156 83.511719 C 229.097656 78.824219 229.097656 71.226562 224.410156 66.539062 L 146.9375 -10.933594 C 142.25 -15.621094 134.652344 -15.621094 129.964844 -10.933594 L 52.492188 66.539062 C 47.804688 71.226562 47.804688 78.824219 52.492188 83.511719 Z M 52.492188 83.511719 " clip-rule="nonzero"/></clipPath><clipPath id="5c6bd50558"><path d="M 44.007812 75.027344 L 138.40625 -19.371094 L 232.804688 75.027344 L 138.40625 169.425781 Z M 44.007812 75.027344 " clip-rule="nonzero"/></clipPath><clipPath id="e95aa3d3fe"><path d="M 44.007812 75.027344 L 138.40625 -19.371094 L 232.804688 75.027344 L 138.40625 169.425781 Z M 44.007812 75.027344 " clip-rule="nonzero"/></clipPath><clipPath id="2df74ad24d"><path d="M 44.007812 75.027344 L 138.40625 -19.371094 L 232.804688 75.027344 L 138.40625 169.425781 Z M 44.007812 75.027344 " clip-rule="nonzero"/></clipPath></defs><g clip-path="url(#5fa0d7cc26)"><g clip-path="url(#28aaa859a1)"><path fill="#ffffff" d="M 232.894531 28.101562 L 343.613281 28.101562 L 343.613281 121.957031 L 232.894531 121.957031 Z M 232.894531 28.101562 " fill-opacity="1" fill-rule="nonzero"/></g></g><g clip-path="url(#3625cba1a1)"><g clip-path="url(#2292b93dcd)"><path fill="#ed1e24" d="M 31.355469 28.101562 L 232.996094 28.101562 L 232.996094 121.957031 L 31.355469 121.957031 Z M 31.355469 28.101562 " fill-opacity="1" fill-rule="nonzero"/></g></g><g clip-path="url(#3c05fa92ef)"><g clip-path="url(#aab9673795)"><g clip-path="url(#141557aa27)"><g clip-path="url(#8f9f992a8c)"><g clip-path="url(#317c9dc4b3)"><g clip-path="url(#61e816b1b9)"><g clip-path="url(#4158153b02)"><path fill="#ed1e24" d="M 185.605469 27.828125 C 211.671875 53.894531 211.671875 96.15625 185.605469 122.226562 C 159.535156 148.292969 117.273438 148.292969 91.207031 122.226562 C 65.136719 96.15625 65.136719 53.894531 91.207031 27.828125 C 117.273438 1.757812 159.535156 1.757812 185.605469 27.828125 " fill-opacity="1" fill-rule="nonzero"/></g></g></g></g></g></g></g><g clip-path="url(#9a056f1ecb)"><g clip-path="url(#b0801361c7)"><g clip-path="url(#a9be67a97f)"><g clip-path="url(#5c6bd50558)"><g clip-path="url(#e95aa3d3fe)"><g clip-path="url(#2df74ad24d)"><path fill="#ffffff" d="M 157.203125 39.90625 L 138.402344 58.707031 L 119.601562 39.90625 L 103.285156 56.222656 L 122.085938 75.023438 L 103.285156 93.824219 L 119.601562 110.140625 L 138.402344 91.339844 L 157.203125 110.140625 L 173.519531 93.824219 L 154.71875 75.023438 L 173.519531 56.222656 L 157.203125 39.90625 " fill-opacity="1" fill-rule="nonzero"/></g></g></g></g></g></g><g fill="#ffffff" fill-opacity="1"><g transform="translate(31.355462, 105.779536)"><g><path d="M 8.765625 0 L 8.765625 -54.28125 L 0.78125 -54.28125 L 0.78125 -67.1875 L 30.1875 -67.1875 L 30.1875 -54.28125 L 22.21875 -54.28125 L 22.21875 0 Z M 8.765625 0 "/></g></g></g><g fill="#ffffff" fill-opacity="1"><g transform="translate(62.331641, 105.779536)"><g><path d="M 1.171875 0 L 7.671875 -67.1875 L 30.421875 -67.1875 L 36.84375 0 L 24.09375 0 L 23.15625 -10.875 L 15.015625 -10.875 L 14.234375 0 Z M 16.03125 -21.59375 L 22.140625 -21.59375 L 19.15625 -55.765625 L 18.53125 -55.765625 Z M 16.03125 -21.59375 "/></g></g></g><g fill="#ffffff" fill-opacity="1"><g transform="translate(100.273426, 105.779536)"><g/></g></g><g fill="#ffffff" fill-opacity="1"><g transform="translate(118.57754, 105.779536)"><g/></g></g><g fill="#ffffff" fill-opacity="1"><g transform="translate(136.881655, 105.779536)"><g/></g></g><g fill="#ffffff" fill-opacity="1"><g transform="translate(155.185769, 105.779536)"><g/></g></g><g fill="#ffffff" fill-opacity="1"><g transform="translate(173.492176, 105.779536)"><g><path d="M 2.96875 0 L 2.96875 -67.1875 L 23.46875 -67.1875 L 29.09375 -26.203125 L 34.734375 -67.1875 L 55.375 -67.1875 L 55.375 0 L 43.09375 0 L 43.09375 -48.421875 L 35.359375 0 L 23.3125 0 L 15.09375 -48.421875 L 15.09375 0 Z M 2.96875 0 "/></g></g></g><g fill="#ed1e24" fill-opacity="1"><g transform="translate(231.851547, 105.779536)"><g><path d="M 1.171875 0 L 7.671875 -67.1875 L 30.421875 -67.1875 L 36.84375 0 L 24.09375 0 L 23.15625 -10.875 L 15.015625 -10.875 L 14.234375 0 Z M 16.03125 -21.59375 L 22.140625 -21.59375 L 19.15625 -55.765625 L 18.53125 -55.765625 Z M 16.03125 -21.59375 "/></g></g></g><g fill="#ed1e24" fill-opacity="1"><g transform="translate(269.789556, 105.779536)"><g><path d="M 2.96875 -67.1875 L 20.734375 -67.1875 C 26.097656 -67.1875 29.925781 -65.453125 32.21875 -61.984375 C 34.519531 -58.515625 35.671875 -53.445312 35.671875 -46.78125 C 35.671875 -40.101562 34.648438 -35.066406 32.609375 -31.671875 C 30.578125 -28.285156 26.929688 -26.59375 21.671875 -26.59375 L 16.1875 -26.59375 L 16.1875 0 L 2.96875 0 Z M 16.96875 -38.71875 C 18.582031 -38.71875 19.769531 -39.015625 20.53125 -39.609375 C 21.289062 -40.210938 21.785156 -41.070312 22.015625 -42.1875 C 22.253906 -43.3125 22.375 -44.921875 22.375 -47.015625 C 22.375 -49.828125 22.0625 -51.859375 21.4375 -53.109375 C 20.8125 -54.359375 19.554688 -54.984375 17.671875 -54.984375 L 16.1875 -54.984375 L 16.1875 -38.71875 Z M 16.96875 -38.71875 "/></g></g></g><g fill="#ed1e24" fill-opacity="1"><g transform="translate(306.710666, 105.779536)"><g><path d="M 2.96875 -67.1875 L 20.734375 -67.1875 C 26.097656 -67.1875 29.925781 -65.453125 32.21875 -61.984375 C 34.519531 -58.515625 35.671875 -53.445312 35.671875 -46.78125 C 35.671875 -40.101562 34.648438 -35.066406 32.609375 -31.671875 C 30.578125 -28.285156 26.929688 -26.59375 21.671875 -26.59375 L 16.1875 -26.59375 L 16.1875 0 L 2.96875 0 Z M 16.96875 -38.71875 C 18.582031 -38.71875 19.769531 -39.015625 20.53125 -39.609375 C 21.289062 -40.210938 21.785156 -41.070312 22.015625 -42.1875 C 22.253906 -43.3125 22.375 -44.921875 22.375 -47.015625 C 22.375 -49.828125 22.0625 -51.859375 21.4375 -53.109375 C 20.8125 -54.359375 19.554688 -54.984375 17.671875 -54.984375 L 16.1875 -54.984375 L 16.1875 -38.71875 Z M 16.96875 -38.71875 "/></g></g></g></svg>